<svg width="111" height="100" viewBox="0 0 111 100" fill="none" xmlns="http://www.w3.org/2000/svg">
<path d="M47.2348 9.73497L6.29546 79.2783C5.45138 80.7657 5.00476 82.452 5.00004 84.1696C4.99531 85.8871 5.43264 87.576 6.26852 89.0681C7.10439 90.5603 8.30968 91.8037 9.76446 92.6748C11.2192 93.5458 12.8728 94.0141 14.5607 94.0329H96.4393C98.1272 94.0141 99.7808 93.5458 101.236 92.6748C102.69 91.8037 103.896 90.5603 104.731 89.0681C105.567 87.576 106.005 85.8871 106 84.1696C105.995 82.452 105.549 80.7657 104.705 79.2783L63.7652 9.73497C62.9035 8.28954 61.6903 7.09448 60.2426 6.2651C58.7948 5.43571 57.1614 5 55.5 5C53.8386 5 52.2052 5.43571 50.7574 6.2651C49.3097 7.09448 48.0965 8.28954 47.2348 9.73497Z" stroke="#F81212" stroke-width="10" stroke-linecap="round" stroke-linejoin="round"/>
</svg>
