<svg width="220" height="198" viewBox="0 0 220 198" fill="none" xmlns="http://www.w3.org/2000/svg">
<g id="user">
<path id="Vector" d="M183.333 172.844V156.428C183.333 147.72 179.47 139.368 172.594 133.211C165.718 127.053 156.391 123.594 146.667 123.594H73.3333C63.6087 123.594 54.2824 127.053 47.4061 133.211C40.5297 139.368 36.6667 147.72 36.6667 156.428V172.844" stroke="#F2BD93" stroke-width="10" stroke-linecap="round" stroke-linejoin="round"/>
<path id="Vector_2" d="M110 90.7609C130.25 90.7609 146.667 76.0609 146.667 57.9276C146.667 39.7942 130.25 25.0942 110 25.0942C89.7496 25.0942 73.3333 39.7942 73.3333 57.9276C73.3333 76.0609 89.7496 90.7609 110 90.7609Z" stroke="#F2BD93" stroke-width="10" stroke-linecap="round" stroke-linejoin="round"/>
<g id="Group 6891">
<path id="Vector_3" d="M101.235 58.735L60.2955 128.278C59.4514 129.766 59.0048 131.452 59 133.17C58.9953 134.887 59.4326 136.576 60.2685 138.068C61.1044 139.56 62.3097 140.804 63.7645 141.675C65.2192 142.546 66.8728 143.014 68.5607 143.033H150.439C152.127 143.014 153.781 142.546 155.236 141.675C156.69 140.804 157.896 139.56 158.731 138.068C159.567 136.576 160.005 134.887 160 133.17C159.995 131.452 159.549 129.766 158.705 128.278L117.765 58.735C116.904 57.2895 115.69 56.0945 114.243 55.2651C112.795 54.4357 111.161 54 109.5 54C107.839 54 106.205 54.4357 104.757 55.2651C103.31 56.0945 102.096 57.2895 101.235 58.735Z" stroke="#F81212" stroke-width="10" stroke-linecap="round" stroke-linejoin="round"/>
<path id="Vector_4" d="M109.547 81.9536V101.626" stroke="#F81212" stroke-width="10" stroke-linecap="round" stroke-linejoin="round"/>
<path id="Vector_5" d="M109.5 121.452H109.547" stroke="#F81212" stroke-width="10" stroke-linecap="round" stroke-linejoin="round"/>
</g>
</g>
</svg>
