<svg width="62" height="56" viewBox="0 0 62 56" fill="none" xmlns="http://www.w3.org/2000/svg">
<g id="&#236;&#134;&#144;&#234;&#176;&#128;&#235;&#157;&#189;">
<g id="Group">
<path id="Vector" d="M31.1463 48.9252L11.4746 40.4252C9.74926 39.6797 8.95187 37.6689 9.69739 35.9435C10.6917 33.6424 13.2633 32.4065 15.6801 33.0645L24.6761 35.382L16.6099 15.0412C15.7272 12.8153 16.8198 10.2867 19.0447 9.40611C21.2886 8.51631 23.8163 9.61099 24.6978 11.8339L26.7973 17.1282C27.2456 16.5891 27.83 16.1534 28.5262 15.8773C30.5827 15.06 32.8843 15.9159 33.9301 17.7815C34.3826 17.2269 34.9775 16.7783 35.6865 16.4954C37.7451 15.6791 40.0476 16.5328 41.0916 18.4026C41.5409 17.8441 42.1358 17.3955 42.8469 17.1135C45.0907 16.2237 47.6184 17.3184 48.4999 19.5413L52.6195 31.5514C53.629 34.4981 53.5052 37.6954 52.2701 40.5536C50.9477 43.6142 48.5124 45.9785 45.412 47.2063L40.7122 49.07C37.6079 50.3011 34.2111 50.2495 31.1463 48.9252ZM21.4825 11.534C20.9964 11.3239 20.4301 11.2996 19.8992 11.5084C18.8227 11.937 18.3016 13.1429 18.7222 14.2035L27.6119 36.6208C27.7695 37.0182 27.69 37.4715 27.4085 37.7906C27.1241 38.1109 26.6868 38.2462 26.2726 38.1391L15.0994 35.2622C13.7504 34.8947 12.3318 35.5765 11.7837 36.845C11.5349 37.4208 11.8003 38.0901 12.3761 38.3389L32.0478 46.8389C34.5555 47.9225 37.3349 47.9648 39.8745 46.9577L44.5743 45.0939C47.1109 44.088 49.1021 42.1557 50.1838 39.6521C51.1944 37.3134 51.2947 34.6977 50.471 32.2893L46.3695 20.3291C45.9651 19.3225 44.7643 18.8012 43.7025 19.2188C43.1707 19.4297 42.769 19.8206 42.55 20.3276C42.3309 20.8346 42.3227 21.398 42.5265 21.9119L42.5774 22.0403C42.8084 22.623 42.5227 23.2843 41.9401 23.5154C41.3685 23.7437 40.7181 23.4726 40.4769 22.9079L40.4757 22.9049L40.4736 22.904L40.4724 22.901L40.4713 22.898L40.4701 22.895C40.4701 22.895 40.4722 22.8959 40.4689 22.892L39.2272 19.7609C38.8078 18.7032 37.5998 18.1812 36.5421 18.6007C35.4636 19.0284 34.9434 20.2322 35.364 21.2928L36.5998 24.4091C36.7159 24.7019 36.7027 25.0131 36.5873 25.2801C36.472 25.5472 36.2543 25.7701 35.9636 25.8871C35.381 26.1181 34.7196 25.8324 34.4886 25.2497L32.0668 19.1427C31.6474 18.0851 30.4394 17.5631 29.3818 17.9825C28.3032 18.4103 27.783 19.614 28.2036 20.6747L30.6242 26.7787C30.7403 27.0715 30.7272 27.3827 30.6118 27.6498C30.4964 27.9168 30.2788 28.1397 29.9881 28.2567C29.4055 28.4878 28.7441 28.202 28.5131 27.6194L22.5854 12.6716C22.3745 12.1397 21.9686 11.744 21.4825 11.534Z" fill="black"/>
</g>
<g id="Group_2">
<path id="Vector_2" d="M13.5001 20.605C13.3562 20.5428 13.2228 20.4505 13.11 20.3275C10.4062 17.3543 9.68184 13.0602 11.2684 9.38833C13.505 4.21223 19.5373 1.82008 24.7134 4.05664C28.3853 5.64324 30.8007 9.26673 30.8673 13.284C30.8779 13.9125 30.3774 14.4291 29.7489 14.4398C29.1216 14.4534 28.6038 13.95 28.5952 13.3223C28.5428 10.195 26.666 7.37615 23.8119 6.14294C19.7854 4.40309 15.0946 6.26326 13.3547 10.2898C12.1215 13.1439 12.6867 16.4828 14.7917 18.7962C15.2126 19.2603 15.1795 19.9788 14.7165 20.4027C14.3754 20.7109 13.8965 20.7763 13.5001 20.605Z" fill="#E84747"/>
</g>
</g>
</svg>
