<svg width="19" height="19" viewBox="0 0 19 19" fill="none" xmlns="http://www.w3.org/2000/svg">
<g id="shopping-cart" clip-path="url(#clip0_616_244)">
<path id="Vector" d="M7.12504 17.4168C7.56227 17.4168 7.91671 17.0624 7.91671 16.6252C7.91671 16.1879 7.56227 15.8335 7.12504 15.8335C6.68782 15.8335 6.33337 16.1879 6.33337 16.6252C6.33337 17.0624 6.68782 17.4168 7.12504 17.4168Z" stroke="#454545" stroke-width="2" stroke-linecap="round" stroke-linejoin="round"/>
<path id="Vector_2" d="M15.8333 17.4168C16.2705 17.4168 16.625 17.0624 16.625 16.6252C16.625 16.1879 16.2705 15.8335 15.8333 15.8335C15.3961 15.8335 15.0416 16.1879 15.0416 16.6252C15.0416 17.0624 15.3961 17.4168 15.8333 17.4168Z" stroke="#454545" stroke-width="2" stroke-linecap="round" stroke-linejoin="round"/>
<path id="Vector_3" d="M0.791626 0.791504H3.95829L6.07996 11.3919C6.15235 11.7564 6.35064 12.0838 6.6401 12.3168C6.92956 12.5498 7.29176 12.6736 7.66329 12.6665H15.3583C15.7298 12.6736 16.092 12.5498 16.3815 12.3168C16.671 12.0838 16.8692 11.7564 16.9416 11.3919L18.2083 4.74984H4.74996" stroke="#454545" stroke-width="2" stroke-linecap="round" stroke-linejoin="round"/>
</g>
<defs>
<clipPath id="clip0_616_244">
<rect width="19" height="19" fill="white"/>
</clipPath>
</defs>
</svg>
